<svg width="28" height="28" viewBox="0 0 28 28" fill="none" xmlns="http://www.w3.org/2000/svg">
<path d="M11 20C10.45 20 9.97917 19.8042 9.5875 19.4125C9.19583 19.0208 9 18.55 9 18V6C9 5.45 9.19583 4.97917 9.5875 4.5875C9.97917 4.19583 10.45 4 11 4H20C20.55 4 21.0208 4.19583 21.4125 4.5875C21.8042 4.97917 22 5.45 22 6V18C22 18.55 21.8042 19.0208 21.4125 19.4125C21.0208 19.8042 20.55 20 20 20H11ZM11 18H20V6H11V18ZM7 24C6.45 24 5.97917 23.8042 5.5875 23.4125C5.19583 23.0208 5 22.55 5 22V8H7V22H18V24H7Z" fill="#737373"/>
</svg>
