<svg xmlns="http://www.w3.org/2000/svg" width="9" height="7" viewBox="0 0 9 7" fill="none">
  <path fill-rule="evenodd" clip-rule="evenodd" d="M8.80226 0.215643C8.92887 0.353604 9 0.540695 9 0.735772C9 0.930849 8.92887 1.11794 8.80226 1.2559L3.74016 6.7701C3.67326 6.84298 3.59384 6.9008 3.50642 6.94025C3.41901 6.9797 3.32532 7 3.2307 7C3.13609 7 3.0424 6.9797 2.95498 6.94025C2.86757 6.9008 2.78815 6.84298 2.72125 6.7701L0.206182 4.0309C0.141677 3.96303 0.0902263 3.88186 0.054831 3.7921C0.0194356 3.70234 0.00080475 3.60581 2.54996e-05 3.50812C-0.000753751 3.41044 0.0163343 3.31357 0.0502924 3.22315C0.0842504 3.13274 0.134399 3.0506 0.197811 2.98152C0.261223 2.91245 0.336629 2.85782 0.419629 2.82083C0.502629 2.78384 0.591561 2.76523 0.681236 2.76607C0.770911 2.76692 0.859533 2.78722 0.94193 2.82577C1.02433 2.86433 1.09885 2.92038 1.16115 2.99064L3.23048 5.24478L7.84684 0.215643C7.90956 0.147279 7.98403 0.0930467 8.066 0.0560457C8.14797 0.0190446 8.23582 0 8.32455 0C8.41328 0 8.50114 0.0190446 8.5831 0.0560457C8.66507 0.0930467 8.73954 0.147279 8.80226 0.215643Z" fill="white"/>
</svg>
