<svg width="1047" height="435" viewBox="0 0 1047 435" fill="none" xmlns="http://www.w3.org/2000/svg">
<rect width="1047" height="435" fill="#DCDCDC"/>
<path d="M523.323 244.777C515.075 244.777 506.827 244.777 498.579 244.777C498.176 244.777 497.768 244.777 497.363 244.731C495.298 244.523 494.468 243.015 495.348 240.976C496.113 239.215 496.946 237.5 497.756 235.759C501.576 227.56 505.397 219.362 509.218 211.165C509.336 210.914 509.459 210.664 509.596 210.425C510.558 208.753 512.121 208.518 513.353 209.96C514.221 210.969 514.956 212.102 515.73 213.196C519.667 218.772 523.603 224.351 527.539 229.932C529.259 232.361 531.424 232.493 533.444 230.309C534.446 229.225 535.426 228.112 536.44 227.037C538.269 225.098 540.344 225.215 541.838 227.476C544.835 232.013 547.758 236.61 550.695 241.192C550.924 241.552 551.1 241.948 551.216 242.367C551.5 243.419 551.097 244.266 550.113 244.547C549.495 244.707 548.862 244.781 548.227 244.767C539.93 244.782 531.629 244.785 523.323 244.777Z" fill="#9B9B9B"/>
<path d="M541.82 199.848C541.818 201.599 541.337 203.309 540.437 204.762C539.537 206.215 538.26 207.346 536.766 208.011C535.273 208.676 533.631 208.845 532.049 208.498C530.467 208.15 529.015 207.301 527.879 206.058C526.742 204.815 525.972 203.234 525.665 201.516C525.358 199.798 525.529 198.02 526.155 196.407C526.782 194.794 527.836 193.419 529.185 192.457C530.533 191.494 532.115 190.987 533.729 191C535.879 191.03 537.932 191.974 539.445 193.629C540.959 195.284 541.812 197.518 541.82 199.848Z" fill="#9B9B9B"/>
</svg>
