<svg width="435" height="435" viewBox="0 0 435 435" fill="none" xmlns="http://www.w3.org/2000/svg">
<rect width="435" height="435" fill="#DCDCDC"/>
<path d="M217.323 244.777C209.075 244.777 200.827 244.777 192.579 244.777C192.176 244.777 191.768 244.777 191.363 244.731C189.298 244.523 188.468 243.015 189.348 240.976C190.113 239.215 190.946 237.5 191.756 235.759C195.576 227.56 199.397 219.362 203.218 211.165C203.336 210.914 203.459 210.664 203.596 210.425C204.558 208.753 206.121 208.518 207.353 209.96C208.221 210.969 208.956 212.102 209.73 213.196C213.667 218.772 217.603 224.351 221.539 229.932C223.259 232.361 225.424 232.493 227.444 230.309C228.446 229.225 229.426 228.112 230.44 227.037C232.269 225.098 234.344 225.215 235.838 227.476C238.835 232.013 241.758 236.61 244.695 241.192C244.924 241.552 245.1 241.948 245.216 242.367C245.5 243.419 245.097 244.266 244.113 244.547C243.495 244.707 242.862 244.781 242.227 244.767C233.93 244.782 225.629 244.785 217.323 244.777Z" fill="#9B9B9B"/>
<path d="M235.82 199.848C235.818 201.599 235.337 203.309 234.437 204.762C233.537 206.215 232.26 207.346 230.766 208.011C229.273 208.676 227.631 208.845 226.049 208.498C224.467 208.15 223.015 207.301 221.879 206.058C220.742 204.815 219.972 203.234 219.665 201.516C219.358 199.798 219.529 198.02 220.155 196.407C220.782 194.794 221.836 193.419 223.185 192.457C224.533 191.494 226.115 190.987 227.729 191C229.879 191.03 231.932 191.974 233.445 193.629C234.959 195.284 235.812 197.518 235.82 199.848Z" fill="#9B9B9B"/>
</svg>
