<svg xmlns="http://www.w3.org/2000/svg" width="224" height="224" viewBox="0 0 224 224" fill="none">
  <g opacity="0.5">
    <rect x="64" width="31.9997" height="32" fill="#EAD1FF" fill-opacity="0.8"/>
    <rect x="96.002" y="32" width="31.9997" height="32" fill="#EAD1FF" fill-opacity="0.8"/>
    <rect x="127.998" width="31.9997" height="32" fill="#EAD1FF" fill-opacity="0.8"/>
    <rect x="64" y="64" width="31.9997" height="32" fill="#EAD1FF" fill-opacity="0.8"/>
    <rect x="128.002" y="64" width="31.9997" height="32" fill="#EAD1FF" fill-opacity="0.8"/>
    <rect x="160" y="32" width="31.9997" height="32" fill="#EAD1FF" fill-opacity="0.8"/>
    <rect x="192" y="64" width="31.9997" height="32" fill="#EAD1FF" fill-opacity="0.8"/>
    <rect x="192" width="31.9997" height="32" fill="#EAD1FF" fill-opacity="0.8"/>
    <rect x="96.002" y="96.0078" width="31.9997" height="32" fill="#EAD1FF" fill-opacity="0.8"/>
    <rect x="64" y="128" width="31.9997" height="32" fill="#EAD1FF" fill-opacity="0.8"/>
    <rect x="128.002" y="128" width="31.9997" height="32" fill="#EAD1FF" fill-opacity="0.8"/>
    <rect x="192" y="128" width="31.9997" height="32" fill="#EAD1FF" fill-opacity="0.8"/>
    <rect x="160" y="96.0078" width="31.9997" height="32" fill="#EAD1FF" fill-opacity="0.8"/>
  </g>
  <g opacity="0.3">
    <rect y="64" width="31.9997" height="32" fill="#EAD1FF" fill-opacity="0.8"/>
    <rect x="32.002" y="96" width="31.9997" height="32" fill="#EAD1FF" fill-opacity="0.8"/>
    <rect x="63.998" y="64" width="31.9997" height="32" fill="#EAD1FF" fill-opacity="0.8"/>
    <rect y="128" width="31.9997" height="32" fill="#EAD1FF" fill-opacity="0.8"/>
    <rect x="64.002" y="128" width="31.9997" height="32" fill="#EAD1FF" fill-opacity="0.8"/>
    <rect x="96" y="96" width="31.9997" height="32" fill="#EAD1FF" fill-opacity="0.8"/>
    <rect x="128" y="128" width="31.9997" height="32" fill="#EAD1FF" fill-opacity="0.8"/>
    <rect x="128" y="64" width="31.9997" height="32" fill="#EAD1FF" fill-opacity="0.8"/>
    <rect x="32.002" y="160.008" width="31.9997" height="32" fill="#EAD1FF" fill-opacity="0.8"/>
    <rect y="192" width="31.9997" height="32" fill="#EAD1FF" fill-opacity="0.8"/>
    <rect x="64.002" y="192" width="31.9997" height="32" fill="#EAD1FF" fill-opacity="0.8"/>
    <rect x="128" y="192" width="31.9997" height="32" fill="#EAD1FF" fill-opacity="0.8"/>
    <rect x="96" y="160.008" width="31.9997" height="32" fill="#EAD1FF" fill-opacity="0.8"/>
  </g>
</svg>